<svg width="50" height="50" viewBox="0 0 50 50" fill="none" xmlns="http://www.w3.org/2000/svg">
<rect width="50" height="50" rx="3" fill="#2589BD"/>
<path d="M13 22H33V42H13V22Z" fill="#B0413E"/>
<path d="M22.6667 39C20.8333 39 19.2639 38.3472 17.9583 37.0417C16.6528 35.7361 16 34.1667 16 32.3333C16 30.5 16.6528 28.9306 17.9583 27.625C19.2639 26.3194 20.8333 25.6667 22.6667 25.6667C23.3056 25.6667 23.8958 25.7431 24.4375 25.8958C24.9792 26.0486 25.5 26.2778 26 26.5833V9H36V15.6667H29.3333V32.3333C29.3333 34.1667 28.6806 35.7361 27.375 37.0417C26.0694 38.3472 24.5 39 22.6667 39Z" fill="#292F36"/>
</svg>
